<?xml version="1.0" encoding="utf-8"?>
<!-- Generator: Adobe Illustrator 19.1.0, SVG Export Plug-In . SVG Version: 6.00 Build 0)  -->
<svg version="1.1" id="Livello_1" xmlns="http://www.w3.org/2000/svg" xmlns:xlink="http://www.w3.org/1999/xlink" x="0px" y="0px"
	 viewBox="0 0 156 156" style="enable-background:new 0 0 156 156;" xml:space="preserve">
<style type="text/css">
	.st0{fill:#FFFFFF;}
</style>
<g>
	<circle cx="78" cy="78" r="78"/>
</g>
<g>
	<path class="st0" d="M86.6,94.6H66.1v-2c0-3.5,0.4-6.3,1.2-8.5c0.8-2.2,2-4.1,3.5-5.9c1.6-1.8,5.1-4.9,10.5-9.5
		c2.9-2.4,4.4-4.5,4.4-6.5c0-2-0.6-3.5-1.7-4.6C82.8,56.5,81,56,78.7,56c-2.5,0-4.7,0.8-6.3,2.5c-1.7,1.7-2.7,4.6-3.2,8.8l-20.9-2.6
		c0.7-7.7,3.5-13.8,8.4-18.5c4.9-4.7,12.3-7,22.3-7c7.8,0,14.1,1.6,18.9,4.9c6.5,4.4,9.8,10.3,9.8,17.6c0,3-0.8,6-2.5,8.8
		c-1.7,2.8-5.1,6.3-10.3,10.4c-3.6,2.9-5.9,5.2-6.9,6.9C87,89.6,86.6,91.8,86.6,94.6z M65.4,100.1h21.9v19.3H65.4V100.1z"/>
</g>
</svg>
